<!DOCTYPE svg PUBLIC "-//W3C//DTD SVG 1.1//EN" "http://www.w3.org/Graphics/SVG/1.1/DTD/svg11.dtd">
<!-- Uploaded to: SVG Repo, www.svgrepo.com, Transformed by: SVG Repo Mixer Tools -->
<svg fill="#000000" height="800px" width="800px" version="1.1" id="Capa_1" xmlns="http://www.w3.org/2000/svg" xmlns:xlink="http://www.w3.org/1999/xlink" viewBox="-23.15 -23.15 277.82 277.82" xml:space="preserve">
<g id="SVGRepo_bgCarrier" stroke-width="0" transform="translate(0,0), scale(1)">
<path transform="translate(-23.15, -23.15), scale(8.681875)" d="M16,31.437618103809655C18.182830350942275,32.046599130007635,20.2918189243654,30.111374517189585,22.230734787652178,28.938254102927342C24.060159884862394,27.8313799117683,25.932077566758668,26.626194206920687,27.007114273322163,24.777880721362106C28.044561099820218,22.994195617161388,27.994862003218284,20.829824579273755,28.143883263888206,18.771762108738237C28.27753519282,16.925958242815646,27.994156228045313,15.14203872371849,27.838357479497198,13.297972157806942C27.661214629821124,11.201272347814196,28.250329215145882,8.9002336271118,27.157932741806565,7.1018455634695865C26.061844154779656,5.297379255025762,24.052094399613114,3.9126323536507392,21.960905163461668,3.622052885133334C19.866064314196567,3.330966009739758,18.09160255011662,5.237894251624317,16,5.551404259633273C14.275747759146673,5.80985218216485,12.46322870431883,4.6479820633003746,10.841713151931565,5.288706990328212C9.214869923586267,5.931537092841054,8.512848259944757,7.814544840419181,7.23890459974335,9.013259560835285C5.757618943711864,10.407072314489904,3.353831056261747,11.039821796024132,2.687404788846674,12.96148701585669C2.031888771755706,14.851692118324992,2.9400605884065096,16.992719488755373,3.8545702226333685,18.772115090347743C4.693133610466526,20.403739239641908,6.342311720631447,21.375799320670826,7.6651314140316735,22.64683589714165C8.838259273032692,23.774040477710336,10.125830850471331,24.692832637786413,11.24520420038105,25.873435214241013C12.945106289462867,27.666321194823286,13.620228807227875,30.77369316687392,16,31.437618103809655" fill="#2563eb" strokewidth="0"/>
</g>
<g id="SVGRepo_tracerCarrier" stroke-linecap="round" stroke-linejoin="round" stroke="#CCCCCC" stroke-width="0.463046"/>
<g id="SVGRepo_iconCarrier"> <g> <path d="M107.415,145.798c0.399,3.858,3.656,6.73,7.451,6.73c0.258,0,0.518-0.013,0.78-0.04c4.12-0.426,7.115-4.111,6.689-8.231 l-3.459-33.468c-0.426-4.12-4.113-7.111-8.231-6.689c-4.12,0.426-7.115,4.111-6.689,8.231L107.415,145.798z"/> <path d="M154.351,152.488c0.262,0.027,0.522,0.04,0.78,0.04c3.796,0,7.052-2.872,7.451-6.73l3.458-33.468 c0.426-4.121-2.569-7.806-6.689-8.231c-4.123-0.421-7.806,2.57-8.232,6.689l-3.458,33.468 C147.235,148.377,150.23,152.062,154.351,152.488z"/> <path d="M96.278,185.088c-12.801,0-23.215,10.414-23.215,23.215c0,12.804,10.414,23.221,23.215,23.221 c12.801,0,23.216-10.417,23.216-23.221C119.494,195.502,109.079,185.088,96.278,185.088z M96.278,216.523 c-4.53,0-8.215-3.688-8.215-8.221c0-4.53,3.685-8.215,8.215-8.215c4.53,0,8.216,3.685,8.216,8.215 C104.494,212.835,100.808,216.523,96.278,216.523z"/> <path d="M173.719,185.088c-12.801,0-23.216,10.414-23.216,23.215c0,12.804,10.414,23.221,23.216,23.221 c12.802,0,23.218-10.417,23.218-23.221C196.937,195.502,186.521,185.088,173.719,185.088z M173.719,216.523 c-4.53,0-8.216-3.688-8.216-8.221c0-4.53,3.686-8.215,8.216-8.215c4.531,0,8.218,3.685,8.218,8.215 C181.937,212.835,178.251,216.523,173.719,216.523z"/> <path d="M218.58,79.08c-1.42-1.837-3.611-2.913-5.933-2.913H63.152l-6.278-24.141c-0.86-3.305-3.844-5.612-7.259-5.612H18.876 c-4.142,0-7.5,3.358-7.5,7.5s3.358,7.5,7.5,7.5h24.94l6.227,23.946c0.031,0.134,0.066,0.267,0.104,0.398l23.157,89.046 c0.86,3.305,3.844,5.612,7.259,5.612h108.874c3.415,0,6.399-2.307,7.259-5.612l23.21-89.25C220.49,83.309,220,80.918,218.58,79.08z M183.638,165.418H86.362l-19.309-74.25h135.895L183.638,165.418z"/> <path d="M105.556,52.851c1.464,1.463,3.383,2.195,5.302,2.195c1.92,0,3.84-0.733,5.305-2.198c2.928-2.93,2.927-7.679-0.003-10.607 L92.573,18.665c-2.93-2.928-7.678-2.927-10.607,0.002c-2.928,2.93-2.927,7.679,0.002,10.607L105.556,52.851z"/> <path d="M159.174,55.045c1.92,0,3.841-0.733,5.306-2.199l23.552-23.573c2.928-2.93,2.925-7.679-0.005-10.606 c-2.93-2.928-7.679-2.925-10.606,0.005l-23.552,23.573c-2.928,2.93-2.925,7.679,0.005,10.607 C155.338,54.314,157.256,55.045,159.174,55.045z"/> <path d="M135.006,48.311c0.001,0,0.001,0,0.002,0c4.141,0,7.499-3.357,7.5-7.498l0.008-33.311c0.001-4.142-3.356-7.501-7.498-7.502 c-0.001,0-0.001,0-0.001,0c-4.142,0-7.5,3.357-7.501,7.498l-0.008,33.311C127.507,44.951,130.864,48.31,135.006,48.311z"/> </g> </g>
</svg>